<?xml version="1.0" encoding="UTF-8"?>
<svg width="135px" height="30px" viewBox="0 0 135 30" version="1.1" xmlns="http://www.w3.org/2000/svg" xmlns:xlink="http://www.w3.org/1999/xlink">
    <!-- Generator: Sketch 49.3 (51167) - http://www.bohemiancoding.com/sketch -->
    <title>Maersk Logo/Negative Text</title>
    <desc>Created with Sketch.</desc>
    <defs></defs>
    <g id="Maersk-Logo/Negative-Text" stroke="none" stroke-width="1" fill="none" fill-rule="evenodd">
        <g id="Text" transform="translate(41.000000, 8.000000)" fill="#FFFFFF">
            <polyline id="Fill-4" points="0.179633028 13.6666055 0.179633028 0.468807339 3.69155963 0.468807339 8.14146789 10.3313761 12.5253211 0.468807339 15.8897248 0.468807339 15.8897248 13.6666055 12.9937615 13.6666055 12.9937615 5.98880734 9.65247706 13.6666055 6.56550459 13.6666055 3.1812844 6.0306422 3.1812844 13.6666055 0.179633028 13.6666055"></polyline>
            <path d="M27.5440367,8.55669725 L25.1209174,2.96238532 L22.7533945,8.55669725 L27.5440367,8.55669725 Z M20.5873394,13.6666055 L17.1816514,13.6666055 L23.0357798,0.468807339 L27.2286239,0.468807339 L33.1245872,13.6666055 L29.7629358,13.6666055 L28.6025688,11.0376147 L21.7119266,11.0376147 L20.5873394,13.6666055 Z" id="Fill-5"></path>
            <polyline id="Fill-6" points="34.4825688 13.6666055 34.4825688 0.468807339 47.0836697 0.468807339 47.0836697 3.10770642 37.526055 3.10770642 37.526055 5.72899083 45.7207339 5.72899083 45.7207339 8.30458716 37.526055 8.30458716 37.526055 11.0266055 47.106789 11.0266055 47.106789 13.6666055 34.4825688 13.6666055"></polyline>
            <path d="M52.6444037,6.52880734 L59.2653211,6.52880734 L59.2653211,3.10770642 L52.6444037,3.10770642 L52.6444037,6.52880734 Z M49.5579817,13.6666055 L49.5579817,0.468807339 L60.1025688,0.468807339 C61.5111927,0.468807339 62.3291743,1.2840367 62.3291743,2.68220183 L62.3291743,7.11614679 C62.3291743,8.13614679 61.4258716,9.05816514 59.6748624,9.05816514 C59.5757798,9.06311927 59.4744954,9.05816514 59.3704587,9.05816514 L62.4398165,13.6666055 L59.0522936,13.6666055 L56.1420183,9.15394495 L52.6444037,9.15394495 L52.6444037,13.6666055 L49.5579817,13.6666055 Z" id="Fill-7"></path>
            <path d="M67.8816514,13.6743119 L66.8368807,13.6743119 C65.472844,13.6743119 64.8161468,12.886055 64.8161468,11.7383486 L64.8161468,10.0143119 L67.8816514,10.0143119 L67.8816514,11.0354128 L74.3952294,11.0354128 L74.3952294,8.33376147 C74.3952294,8.33376147 68.1161468,8.33376147 66.9238532,8.33376147 C65.7310092,8.33376147 64.8717431,7.53174312 64.8717431,6.4187156 L64.8717431,2.50055046 C64.8717431,1.31486239 65.8069725,0.47706422 66.9447706,0.47706422 C68.0820183,0.47706422 75.4856881,0.47706422 75.4856881,0.47706422 C76.64,0.47706422 77.4387156,1.33853211 77.4387156,2.58422018 C77.4387156,3.82825688 77.4387156,4.15908257 77.4387156,4.15908257 L74.3952294,4.15908257 L74.3952294,3.1159633 L67.8816514,3.1159633 L67.8816514,5.71522936 L75.3315596,5.71522936 C76.4313761,5.71522936 77.4387156,6.44293578 77.4387156,7.84385321 L77.4387156,11.6106422 C77.4387156,12.8937615 76.7269725,13.6743119 75.3959633,13.6743119 C74.0649541,13.6743119 67.8816514,13.6743119 67.8816514,13.6743119" id="Fill-8"></path>
            <polyline id="Fill-9" points="80.380367 13.6743119 80.380367 0.475412844 83.5091743 0.475412844 83.5091743 5.75431193 89.4689908 0.475412844 93.7053211 0.475412844 86.5955963 6.60642202 93.9612844 13.6743119 89.5752294 13.6743119 83.5091743 7.67100917 83.5091743 13.6743119 80.380367 13.6743119"></polyline>
        </g>
        <g id="Star" fill-rule="nonzero">
            <path d="M3.41090602,0 L24.9545163,0 C26.8413363,3.91699413e-15 28.370906,1.53269664 28.370906,3.42337376 L28.370906,26.5766262 C28.370906,28.4673034 26.8413363,30 24.9545163,30 L3.41090602,30 C1.52712446,30 1.77719401e-05,28.4697715 1.77719401e-05,26.5821389 L1.77719401e-05,3.42888644 C-0.00290652939,2.52050454 0.355162501,1.64832309 0.995145361,1.00496324 C1.63512822,0.36160339 2.50437262,-4.72626947e-06 3.41090602,0 Z" id="Shape" fill="#64B2D4"></path>
            <polygon id="Shape" fill="#FFFFFF" points="18.7048888 14.1585366 24.3053473 7.15060976 24.288843 7.12865854 16.1962355 11.0140244 14.1992155 2.28292683 14.1662069 2.28292683 12.1691868 11.0140244 4.07657938 7.12865854 4.06007508 7.15060976 9.66053353 14.1585366 1.56792608 18.0439024 1.57892895 18.0713415 10.5572671 18.0713415 8.560247 26.8079268 8.58225273 26.8189024 14.1827112 19.8109756 19.7831696 26.8189024 19.8106768 26.802439 17.8081553 18.0713415 26.7919948 18.0713415 26.7974963 18.0439024"></polygon>
        </g>
    </g>
</svg>